{
    "accessors" : [
        {
            "bufferView" : 0,
            "componentType" : 5123,
            "count" : 1935,
            "max" : [
                832
            ],
            "min" : [
                0
            ],
            "type" : "SCALAR"
        },
        {
            "bufferView" : 1,
            "componentType" : 5126,
            "count" : 833,
            "max" : [
                -0.19999998807907104,
                0.0,
                0.23000000417232513
            ],
            "min" : [
                -3.244000196456909,
                0.0,
                -0.6820000410079956
            ],
            "type" : "VEC3"
        },
        {
            "bufferView" : 2,
            "componentType" : 5121,
            "count" : 6,
            "max" : [
                3
            ],
            "min" : [
                0
            ],
            "type" : "SCALAR"
        },
        {
            "bufferView" : 3,
            "componentType" : 5126,
            "count" : 4,
            "max" : [
                1.0,
                0.0,
                1.0
            ],
            "min" : [
                -1.0,
                0.0,
                -1.0
            ],
            "type" : "VEC3"
        },
        {
            "bufferView" : 4,
            "componentType" : 5126,
            "count" : 4,
            "max" : [
                1.0,
                1.0
            ],
            "min" : [
                0.0,
                0.0
            ],
            "type" : "VEC2"
        },
        {
            "bufferView" : 5,
            "componentType" : 5123,
            "count" : 1563,
            "max" : [
                717
            ],
            "min" : [
                0
            ],
            "type" : "SCALAR"
        },
        {
            "bufferView" : 6,
            "componentType" : 5126,
            "count" : 718,
            "max" : [
                2.7170002460479736,
                0.0,
                1.0089999437332153
            ],
            "min" : [
                0.04400000348687172,
                0.0,
                0.3085925281047821
            ],
            "type" : "VEC3"
        },
        {
            "bufferView" : 7,
            "componentType" : 5123,
            "count" : 1905,
            "max" : [
                858
            ],
            "min" : [
                0
            ],
            "type" : "SCALAR"
        },
        {
            "bufferView" : 8,
            "componentType" : 5126,
            "count" : 859,
            "max" : [
                4.428000450134277,
                0.0,
                0.23000000417232513
            ],
            "min" : [
                0.05700000375509262,
                0.0,
                -0.6820000410079956
            ],
            "type" : "VEC3"
        }
    ],
    "asset" : {
        "generator" : "Khronos Blender glTF 2.0 exporter",
        "version" : "2.0"
    },
    "bufferViews" : [
        {
            "buffer" : 0,
            "byteLength" : 3870,
            "byteOffset" : 0,
            "target" : 34963
        },
        {
            "buffer" : 0,
            "byteLength" : 9996,
            "byteOffset" : 3872,
            "target" : 34962
        },
        {
            "buffer" : 0,
            "byteLength" : 6,
            "byteOffset" : 13868,
            "target" : 34963
        },
        {
            "buffer" : 0,
            "byteLength" : 48,
            "byteOffset" : 13876,
            "target" : 34962
        },
        {
            "buffer" : 0,
            "byteLength" : 32,
            "byteOffset" : 13924,
            "target" : 34962
        },
        {
            "buffer" : 0,
            "byteLength" : 3126,
            "byteOffset" : 13956,
            "target" : 34963
        },
        {
            "buffer" : 0,
            "byteLength" : 8616,
            "byteOffset" : 17084,
            "target" : 34962
        },
        {
            "buffer" : 0,
            "byteLength" : 3810,
            "byteOffset" : 25700,
            "target" : 34963
        },
        {
            "buffer" : 0,
            "byteLength" : 10308,
            "byteOffset" : 29512,
            "target" : 34962
        }
    ],
    "buffers" : [
        {
            "byteLength" : 39820,
            "uri" : "data:application/octet-stream;base64,"
        }
    ],
    "cameras" : [
        {
            "name" : "Camera",
            "perspective" : {
                "aspectRatio" : 1.7777777777777777,
                "yfov" : 0.5033799372418416,
                "zfar" : 100.0,
                "znear" : 0.10000000149011612
            },
            "type" : "perspective"
        }
    ],
    "extensions" : {
        "KHR_lights_punctual" : {
            "lights" : [
                {
                    "color" : [
                        1.0,
                        0.24620138108730316,
                        0.24620138108730316
                    ],
                    "intensity" : 1.0,
                    "name" : "Point",
                    "type" : "point"
                },
                {
                    "color" : [
                        0.24620138108730316,
                        1.0,
                        0.24620138108730316
                    ],
                    "intensity" : 1.0,
                    "range" : 1.0,
                    "name" : "Point.001",
                    "type" : "point"
                },
                {
                    "color" : [
                        0.24620099365711212,
                        0.24620138108730316,
                        1.0
                    ],
                    "intensity" : 5.0,
                    "name" : "Point.002",
                    "type" : "point"
                }
            ]
        }
    },
    "extensionsRequired" : [
        "KHR_lights_punctual"
    ],
    "extensionsUsed" : [
        "KHR_materials_unlit",
        "KHR_lights_punctual"
    ],
    "images" : [
        {
            "mimeType" : "image/png",
            "name" : "UVGrid",
            "uri" : "data:image/png;base64,"
        }
    ],
    "materials" : [
        {
            "name" : "GridMaterial",
            "pbrMetallicRoughness" : {
                "baseColorFactor" : [
                    0.800000011920929,
                    0.800000011920929,
                    0.800000011920929,
                    1.0
                ],
                "baseColorTexture" : {
                    "index" : 0
                },
                "metallicFactor" : 0.0
            }
        },
        {
            "extensions" : {
                "KHR_materials_unlit" : {}
            },
            "name" : "LabelMaterial",
            "pbrMetallicRoughness" : {
                "baseColorFactor" : [
                    0.6400000190734865,
                    0.6400000190734865,
                    0.6400000190734865,
                    1.0
                ],
                "metallicFactor" : 0.0,
                "roughnessFactor" : 0.9
            }
        }
    ],
    "meshes" : [
        {
            "name" : "CUText.000",
            "primitives" : [
                {
                    "attributes" : {
                        "POSITION" : 1
                    },
                    "indices" : 0,
                    "material" : 1
                }
            ]
        },
        {
            "name" : "Plane",
            "primitives" : [
                {
                    "attributes" : {
                        "POSITION" : 3,
                        "TEXCOORD_0" : 4
                    },
                    "indices" : 2,
                    "material" : 0
                }
            ]
        },
        {
            "name" : "CUText.003",
            "primitives" : [
                {
                    "attributes" : {
                        "POSITION" : 6
                    },
                    "indices" : 5,
                    "material" : 1
                }
            ]
        },
        {
            "name" : "CUText.004",
            "primitives" : [
                {
                    "attributes" : {
                        "POSITION" : 8
                    },
                    "indices" : 7,
                    "material" : 1
                }
            ]
        }
    ],
    "nodes" : [
        {
            "camera" : 0,
            "name" : "Correction_Camera",
            "rotation" : [
                -0.7071067690849304,
                -0.0,
                0.0,
                0.7071067690849304
            ]
        },
        {
            "children" : [
                0
            ],
            "name" : "Camera",
            "translation" : [
                0.0,
                50.0,
                -0.0
            ]
        },
        {
            "name" : "Lattice"
        },
        {
            "mesh" : 1,
            "name" : "Plane",
            "scale" : [
                10.0,
                0.9999999403953552,
                10.0
            ]
        },
        {
            "extensions" : {
                "KHR_lights_punctual" : {
                    "light" : 0
                }
            },
            "name" : "Correction_Point",
            "rotation" : [
                -0.7071067690849304,
                -0.0,
                0.0,
                0.7071067690849304
            ]
        },
        {
            "children" : [
                4
            ],
            "name" : "Point",
            "translation" : [
                10.0,
                0.5,
                -10.0
            ]
        },
        {
            "extensions" : {
                "KHR_lights_punctual" : {
                    "light" : 1
                }
            },
            "name" : "Correction_Point.001",
            "rotation" : [
                -0.7071067690849304,
                -0.0,
                0.0,
                0.7071067690849304
            ]
        },
        {
            "children" : [
                6
            ],
            "name" : "Point.001",
            "translation" : [
                -10.0,
                0.5,
                10.0
            ]
        },
        {
            "extensions" : {
                "KHR_lights_punctual" : {
                    "light" : 2
                }
            },
            "name" : "Correction_Point.002",
            "rotation" : [
                -0.7071067690849304,
                -0.0,
                0.0,
                0.7071067690849304
            ]
        },
        {
            "children" : [
                8
            ],
            "name" : "Point.002",
            "translation" : [
                10.0,
                0.5,
                10.0
            ]
        },
        {
            "mesh" : 3,
            "name" : "Text.000",
            "translation" : [
                10.0,
                0.0,
                10.0
            ]
        },
        {
            "name" : "Text.001",
            "translation" : [
                25.0,
                0.0,
                10.0
            ]
        },
        {
            "mesh" : 0,
            "name" : "Text.002",
            "translation" : [
                -10.0,
                0.0,
                10.0
            ]
        },
        {
            "name" : "Text.003",
            "translation" : [
                25.0,
                0.0,
                -10.0
            ]
        },
        {
            "mesh" : 2,
            "name" : "Text.004",
            "translation" : [
                10.0,
                0.0,
                -10.0
            ]
        },
        {
            "name" : "Text.005",
            "translation" : [
                -25.0,
                0.0,
                10.0
            ]
        }
    ],
    "samplers" : [
        {}
    ],
    "scene" : 0,
    "scenes" : [
        {
            "name" : "Scene",
            "nodes" : [
                15,
                10,
                14,
                13,
                12,
                11,
                9,
                2,
                7,
                5,
                3,
                1
            ]
        }
    ],
    "textures" : [
        {
            "sampler" : 0,
            "source" : 0
        }
    ]
}
