{
    "accessors" : [
        {
            "bufferView" : 0,
            "componentType" : 5123,
            "count" : 1563,
            "max" : [
                717
            ],
            "min" : [
                0
            ],
            "type" : "SCALAR"
        },
        {
            "bufferView" : 1,
            "componentType" : 5126,
            "count" : 718,
            "max" : [
                2.7170002460479736,
                0.0,
                1.0089999437332153
            ],
            "min" : [
                0.04400000348687172,
                0.0,
                0.3085925281047821
            ],
            "type" : "VEC3"
        },
        {
            "bufferView" : 2,
            "componentType" : 5126,
            "count" : 718,
            "max" : [
                0.0,
                1.0,
                -0.0
            ],
            "min" : [
                0.0,
                0.0,
                -0.0
            ],
            "type" : "VEC3"
        },
        {
            "bufferView" : 3,
            "componentType" : 5123,
            "count" : 1905,
            "max" : [
                858
            ],
            "min" : [
                0
            ],
            "type" : "SCALAR"
        },
        {
            "bufferView" : 4,
            "componentType" : 5126,
            "count" : 859,
            "max" : [
                4.428000450134277,
                0.0,
                0.23000000417232513
            ],
            "min" : [
                0.05700000375509262,
                0.0,
                -0.6820000410079956
            ],
            "type" : "VEC3"
        },
        {
            "bufferView" : 5,
            "componentType" : 5126,
            "count" : 859,
            "max" : [
                0.0,
                1.0,
                -0.0
            ],
            "min" : [
                0.0,
                0.0,
                -0.0
            ],
            "type" : "VEC3"
        },
        {
            "bufferView" : 6,
            "componentType" : 5123,
            "count" : 4410,
            "max" : [
                2050
            ],
            "min" : [
                0
            ],
            "type" : "SCALAR"
        },
        {
            "bufferView" : 7,
            "componentType" : 5126,
            "count" : 2051,
            "max" : [
                -0.02299976348876953,
                0.0,
                1.2300000190734863
            ],
            "min" : [
                -8.703999519348145,
                0.0,
                0.3089999556541443
            ],
            "type" : "VEC3"
        },
        {
            "bufferView" : 8,
            "componentType" : 5126,
            "count" : 2051,
            "max" : [
                0.0,
                1.0,
                -0.0
            ],
            "min" : [
                0.0,
                0.0,
                -0.0
            ],
            "type" : "VEC3"
        },
        {
            "bufferView" : 9,
            "componentType" : 5123,
            "count" : 2190,
            "max" : [
                950
            ],
            "min" : [
                0
            ],
            "type" : "SCALAR"
        },
        {
            "bufferView" : 10,
            "componentType" : 5126,
            "count" : 951,
            "max" : [
                -0.0339999794960022,
                0.0,
                0.23000000417232513
            ],
            "min" : [
                -3.244000196456909,
                0.0,
                -0.6910000443458557
            ],
            "type" : "VEC3"
        },
        {
            "bufferView" : 11,
            "componentType" : 5126,
            "count" : 951,
            "max" : [
                0.0,
                1.0,
                -0.0
            ],
            "min" : [
                0.0,
                0.9999999403953552,
                -0.0
            ],
            "type" : "VEC3"
        },
        {
            "bufferView" : 12,
            "componentType" : 5121,
            "count" : 6,
            "max" : [
                3
            ],
            "min" : [
                0
            ],
            "type" : "SCALAR"
        },
        {
            "bufferView" : 13,
            "componentType" : 5126,
            "count" : 4,
            "max" : [
                1.0,
                0.0,
                1.0
            ],
            "min" : [
                -1.0,
                0.0,
                -1.0
            ],
            "type" : "VEC3"
        },
        {
            "bufferView" : 14,
            "componentType" : 5126,
            "count" : 4,
            "max" : [
                0.0,
                1.0,
                -0.0
            ],
            "min" : [
                0.0,
                1.0,
                -0.0
            ],
            "type" : "VEC3"
        },
        {
            "bufferView" : 15,
            "componentType" : 5126,
            "count" : 4,
            "max" : [
                1.0,
                0.0,
                -0.0,
                1.0
            ],
            "min" : [
                1.0,
                0.0,
                -0.0,
                1.0
            ],
            "type" : "VEC4"
        },
        {
            "bufferView" : 16,
            "componentType" : 5126,
            "count" : 4,
            "max" : [
                1.0,
                1.0
            ],
            "min" : [
                0.0,
                0.0
            ],
            "type" : "VEC2"
        }
    ],
    "asset" : {
        "generator" : "Khronos Blender glTF 2.0 exporter",
        "version" : "2.0"
    },
    "bufferViews" : [
        {
            "buffer" : 0,
            "byteLength" : 3126,
            "byteOffset" : 0,
            "target" : 34963
        },
        {
            "buffer" : 0,
            "byteLength" : 8616,
            "byteOffset" : 3128,
            "target" : 34962
        },
        {
            "buffer" : 0,
            "byteLength" : 8616,
            "byteOffset" : 11744,
            "target" : 34962
        },
        {
            "buffer" : 0,
            "byteLength" : 3810,
            "byteOffset" : 20360,
            "target" : 34963
        },
        {
            "buffer" : 0,
            "byteLength" : 10308,
            "byteOffset" : 24172,
            "target" : 34962
        },
        {
            "buffer" : 0,
            "byteLength" : 10308,
            "byteOffset" : 34480,
            "target" : 34962
        },
        {
            "buffer" : 0,
            "byteLength" : 8820,
            "byteOffset" : 44788,
            "target" : 34963
        },
        {
            "buffer" : 0,
            "byteLength" : 24612,
            "byteOffset" : 53608,
            "target" : 34962
        },
        {
            "buffer" : 0,
            "byteLength" : 24612,
            "byteOffset" : 78220,
            "target" : 34962
        },
        {
            "buffer" : 0,
            "byteLength" : 4380,
            "byteOffset" : 102832,
            "target" : 34963
        },
        {
            "buffer" : 0,
            "byteLength" : 11412,
            "byteOffset" : 107212,
            "target" : 34962
        },
        {
            "buffer" : 0,
            "byteLength" : 11412,
            "byteOffset" : 118624,
            "target" : 34962
        },
        {
            "buffer" : 0,
            "byteLength" : 6,
            "byteOffset" : 130036,
            "target" : 34963
        },
        {
            "buffer" : 0,
            "byteLength" : 48,
            "byteOffset" : 130044,
            "target" : 34962
        },
        {
            "buffer" : 0,
            "byteLength" : 48,
            "byteOffset" : 130092,
            "target" : 34962
        },
        {
            "buffer" : 0,
            "byteLength" : 64,
            "byteOffset" : 130140,
            "target" : 34962
        },
        {
            "buffer" : 0,
            "byteLength" : 32,
            "byteOffset" : 130204,
            "target" : 34962
        }
    ],
    "buffers" : [
        {
            "byteLength" : 130236,
            "uri" : "data:application/octet-stream;base64,"
        }
    ],
    "cameras" : [
        {
            "name" : "Camera",
            "perspective" : {
                "aspectRatio" : 1.7777777777777777,
                "yfov" : 0.5033799372418416,
                "zfar" : 100.0,
                "znear" : 0.10000000149011612
            },
            "type" : "perspective"
        }
    ],
    "extensions" : {
        "KHR_lights_punctual" : {
            "lights" : [
                {
                    "color" : [
                        1.0,
                        0.24620138108730316,
                        0.24620138108730316
                    ],
                    "intensity" : 1.0,
                    "name" : "Point",
                    "spot" : {
                        "innerConeAngle" : 0.3337942263919169,
                        "outerConeAngle" : 0.39269909262657166
                    },
                    "type" : "spot"
                },
                {
                    "color" : [
                        0.24620138108730316,
                        1.0,
                        0.24620138108730316
                    ],
                    "intensity" : 1.0,
                    "range" : 2.0,
                    "name" : "Point.001",
                    "spot" : {
                        "innerConeAngle" : 0.3337942263919169,
                        "outerConeAngle" : 0.39269909262657166
                    },
                    "type" : "spot"
                },
                {
                    "color" : [
                        0.24620099365711212,
                        0.24620138108730316,
                        1.0
                    ],
                    "intensity" : 5.0,
                    "name" : "Point.002",
                    "spot" : {
                        "innerConeAngle" : 0.3337942263919169,
                        "outerConeAngle" : 0.39269909262657166
                    },
                    "type" : "spot"
                },
                {
                    "color" : [
                        1.0,
                        1.0,
                        0.24620138108730316
                    ],
                    "intensity" : 1.0,
                    "name" : "Point.003",
                    "spot" : {
                        "innerConeAngle" : 0.5235987901687622,
                        "outerConeAngle" : 0.5235987901687622
                    },
                    "type" : "spot"
                }
            ]
        }
    },
    "extensionsRequired" : [
        "KHR_lights_punctual"
    ],
    "extensionsUsed" : [
        "KHR_materials_unlit",
        "KHR_lights_punctual"
    ],
    "images" : [
        {
            "mimeType" : "image/png",
            "name" : "UVGrid",
            "uri" : "data:image/png;base64,"
        }
    ],
    "materials" : [
        {
            "name" : "GridMaterial",
            "pbrMetallicRoughness" : {
                "baseColorFactor" : [
                    0.800000011920929,
                    0.800000011920929,
                    0.800000011920929,
                    1.0
                ],
                "baseColorTexture" : {
                    "index" : 0
                },
                "metallicFactor" : 0.0
            }
        },
        {
            "extensions" : {
                "KHR_materials_unlit" : {}
            },
            "name" : "LabelMaterial",
            "pbrMetallicRoughness" : {
                "baseColorFactor" : [
                    0.6400000190734865,
                    0.6400000190734865,
                    0.6400000190734865,
                    1.0
                ],
                "metallicFactor" : 0.0,
                "roughnessFactor" : 0.9
            }
        }
    ],
    "meshes" : [
        {
            "name" : "CUText.003",
            "primitives" : [
                {
                    "attributes" : {
                        "NORMAL" : 2,
                        "POSITION" : 1
                    },
                    "indices" : 0,
                    "material" : 1
                }
            ]
        },
        {
            "name" : "CUText.004",
            "primitives" : [
                {
                    "attributes" : {
                        "NORMAL" : 5,
                        "POSITION" : 4
                    },
                    "indices" : 3,
                    "material" : 1
                }
            ]
        },
        {
            "name" : "CUText.001",
            "primitives" : [
                {
                    "attributes" : {
                        "NORMAL" : 8,
                        "POSITION" : 7
                    },
                    "indices" : 6,
                    "material" : 1
                }
            ]
        },
        {
            "name" : "CUText.002",
            "primitives" : [
                {
                    "attributes" : {
                        "NORMAL" : 11,
                        "POSITION" : 10
                    },
                    "indices" : 9,
                    "material" : 1
                }
            ]
        },
        {
            "name" : "Plane",
            "primitives" : [
                {
                    "attributes" : {
                        "NORMAL" : 14,
                        "POSITION" : 13,
                        "TANGENT" : 15,
                        "TEXCOORD_0" : 16
                    },
                    "indices" : 12,
                    "material" : 0
                }
            ]
        }
    ],
    "nodes" : [
        {
            "camera" : 0,
            "name" : "Correction_Camera",
            "rotation" : [
                -0.7071067690849304,
                -0.0,
                0.0,
                0.7071067690849304
            ]
        },
        {
            "children" : [
                0
            ],
            "name" : "Camera",
            "translation" : [
                0.0,
                50.0,
                -0.0
            ]
        },
        {
            "name" : "Lattice"
        },
        {
            "mesh" : 4,
            "name" : "Plane",
            "scale" : [
                10.0,
                0.9999999403953552,
                10.0
            ]
        },
        {
            "extensions" : {
                "KHR_lights_punctual" : {
                    "light" : 0
                }
            },
            "name" : "Correction_Point",
            "rotation" : [
                -0.7071067690849304,
                -0.0,
                0.0,
                0.7071067690849304
            ]
        },
        {
            "children" : [
                4
            ],
            "name" : "Point",
            "rotation" : [
                -0.4964001178741455,
                -0.3227519392967224,
                -0.20561566948890686,
                0.7791920900344849
            ],
            "scale" : [
                0.9999999403953552,
                1.0,
                1.0
            ],
            "translation" : [
                10.0,
                0.5,
                -10.0
            ]
        },
        {
            "extensions" : {
                "KHR_lights_punctual" : {
                    "light" : 1
                }
            },
            "name" : "Correction_Point.001",
            "rotation" : [
                -0.7071067690849304,
                -0.0,
                0.0,
                0.7071067690849304
            ]
        },
        {
            "children" : [
                6
            ],
            "name" : "Point.001",
            "rotation" : [
                -0.20561566948890686,
                0.7791920900344849,
                0.4964000880718231,
                0.32275187969207764
            ],
            "scale" : [
                0.9999999403953552,
                1.0,
                1.0
            ],
            "translation" : [
                -10.0,
                0.5,
                10.0
            ]
        },
        {
            "extensions" : {
                "KHR_lights_punctual" : {
                    "light" : 2
                }
            },
            "name" : "Correction_Point.002",
            "rotation" : [
                -0.7071067690849304,
                -0.0,
                0.0,
                0.7071067690849304
            ]
        },
        {
            "children" : [
                8
            ],
            "name" : "Point.002",
            "rotation" : [
                -0.20561566948890686,
                -0.7791920900344849,
                -0.4964000880718231,
                0.32275187969207764
            ],
            "scale" : [
                0.9999999403953552,
                1.0,
                1.0
            ],
            "translation" : [
                10.0,
                0.5,
                10.0
            ]
        },
        {
            "extensions" : {
                "KHR_lights_punctual" : {
                    "light" : 3
                }
            },
            "name" : "Correction_Point.003",
            "rotation" : [
                -0.7071067690849304,
                -0.0,
                0.0,
                0.7071067690849304
            ]
        },
        {
            "children" : [
                10
            ],
            "name" : "Point.003",
            "rotation" : [
                -0.4964001178741455,
                0.3227519392967224,
                0.20561566948890686,
                0.7791920900344849
            ],
            "scale" : [
                0.9999999403953552,
                1.0,
                1.0
            ],
            "translation" : [
                -10.0,
                0.5,
                -10.0
            ]
        },
        {
            "mesh" : 1,
            "name" : "Text.000",
            "translation" : [
                10.0,
                0.0,
                10.0
            ]
        },
        {
            "name" : "Text.001",
            "translation" : [
                25.0,
                0.0,
                10.0
            ]
        },
        {
            "mesh" : 3,
            "name" : "Text.002",
            "translation" : [
                -10.0,
                0.0,
                10.0
            ]
        },
        {
            "name" : "Text.003",
            "translation" : [
                25.0,
                0.0,
                -10.0
            ]
        },
        {
            "mesh" : 0,
            "name" : "Text.004",
            "translation" : [
                10.0,
                0.0,
                -10.0
            ]
        },
        {
            "name" : "Text.005",
            "translation" : [
                -25.0,
                0.0,
                10.0
            ]
        },
        {
            "mesh" : 2,
            "name" : "Text.006",
            "translation" : [
                -10.0,
                0.0,
                -10.0
            ]
        },
        {
            "name" : "Text.007",
            "translation" : [
                -25.0,
                0.0,
                -10.0
            ]
        }
    ],
    "samplers" : [
        {}
    ],
    "scene" : 0,
    "scenes" : [
        {
            "name" : "Scene",
            "nodes" : [
                14,
                19,
                18,
                11,
                17,
                12,
                16,
                15,
                13,
                9,
                2,
                7,
                5,
                3,
                1
            ]
        }
    ],
    "textures" : [
        {
            "sampler" : 0,
            "source" : 0
        }
    ]
}
